<svg width="224" height="186" viewBox="0 0 224 186" fill="none" xmlns="http://www.w3.org/2000/svg">
<g style="mix-blend-mode:soft-light" filter="url(#filter0_f_2_154)">
<path d="M179.453 69.9437C162.107 62.7362 138.802 58.0862 113.899 56.8075C109.926 56.575 106.056 56.4975 102.377 56.4975C120.796 34.565 140.534 19.84 153.525 19.375C156.084 19.2742 158.253 19.8012 159.986 20.894C165.595 24.4435 167.177 34.596 164.316 48.7165C163.998 50.654 165.27 52.5372 167.177 52.9015C169.163 53.289 171.07 52.049 171.467 50.1115C175.043 32.4415 172.421 20.305 163.998 14.942C160.979 13.02 157.324 12.1132 153.271 12.2605C136.982 12.8572 114.018 30.0855 92.9615 56.5905C83.7918 56.8617 75.1626 57.598 67.2802 58.8147C62.1471 36.363 64.1813 20.243 72.0001 16.368C73.0966 15.8022 74.2647 15.5155 75.6314 15.407C81.1697 14.9885 88.8216 18.4682 97.1649 25.2495C98.7064 26.4895 101.027 26.3345 102.298 24.7845C102.603 24.4257 102.833 24.0119 102.974 23.5665C103.116 23.1211 103.165 22.653 103.121 22.1888C103.077 21.7246 102.939 21.2734 102.716 20.8611C102.493 20.4488 102.189 20.0834 101.821 19.7857C91.8093 11.7025 82.5761 7.74997 75.0275 8.29247C72.8102 8.46762 70.6461 9.04591 68.6469 9.99747C59.1912 14.7017 55.3771 28.0317 57.7609 47.492C58.3171 51.522 59.0323 55.7225 60.0653 60.047C33.9946 65.131 17.3876 75.3145 16.6724 88.133C16.1957 97.2005 23.5457 105.834 37.9676 113.103C38.3964 113.357 38.8741 113.522 39.3711 113.588C39.8681 113.654 40.3736 113.619 40.8563 113.487C41.339 113.354 41.7885 113.125 42.1768 112.816C42.5652 112.506 42.884 112.122 43.1135 111.687C43.3431 111.252 43.4784 110.776 43.511 110.288C43.5437 109.8 43.473 109.31 43.3033 108.85C43.1336 108.389 42.8687 107.968 42.5249 107.612C42.1811 107.256 41.7658 106.972 41.3049 106.779C29.7832 100.99 23.5854 94.4725 23.9589 88.505C24.3562 80.135 38.0391 71.5325 61.7816 66.96C63.927 74.6635 66.7081 82.708 70.1248 90.9075C62.0359 105.539 56.1717 119.947 53.1443 132.757C48.6946 151.861 51.0784 165.462 59.9779 171.104C62.8384 172.918 66.1757 173.817 69.8864 173.817C77.3159 173.817 86.3107 170.252 96.4815 163.184C96.8944 162.924 97.2489 162.585 97.5238 162.188C97.7987 161.79 97.9882 161.343 98.0809 160.872C98.1736 160.401 98.1676 159.917 98.0633 159.449C97.9589 158.98 97.7584 158.537 97.4738 158.147C97.1891 157.756 96.8263 157.425 96.4071 157.175C95.988 156.925 95.5212 156.76 95.0349 156.69C94.5487 156.621 94.053 156.648 93.5778 156.77C93.1027 156.893 92.6578 157.108 92.2702 157.402C80.0016 165.951 69.6719 168.81 63.9667 165.176C57.9278 161.339 56.6088 150.117 60.3116 134.362C62.8543 123.62 67.5186 111.654 73.8833 99.3317C75.4724 102.726 77.1411 106.121 78.8892 109.507C90.2122 131.176 104.078 150.017 117.904 162.556C128.917 172.554 139.151 177.769 147.582 177.769C150.363 177.769 152.985 177.188 155.337 176.041C164.435 171.507 168.369 158.914 166.446 140.585C164.666 123.434 158.023 102.532 147.741 81.685C147.307 80.8592 146.56 80.2309 145.659 79.9337C144.757 79.6365 143.773 79.6938 142.914 80.0934C142.055 80.493 141.39 81.2034 141.06 82.0736C140.73 82.9439 140.761 83.9054 141.146 84.754C162.52 128.169 164.03 163.726 152.032 169.694C139.398 175.995 108.933 151.443 85.3651 106.299C82.6635 101.223 80.3036 96.224 78.2138 91.3415C80.9154 86.6295 83.776 81.8865 86.9146 77.159C90.0533 72.478 93.319 67.952 96.6404 63.6352H99.7712C104.062 63.6352 108.718 63.7127 113.549 64.0072C165.436 66.6655 200.756 83.8472 200.033 97.5957C199.715 103.524 192.691 109.515 180.764 114.026C179.868 114.378 179.149 115.059 178.763 115.923C178.377 116.787 178.353 117.764 178.698 118.645C178.868 119.082 179.125 119.482 179.455 119.821C179.784 120.161 180.18 120.433 180.618 120.622C181.057 120.811 181.53 120.913 182.009 120.922C182.488 120.931 182.964 120.847 183.41 120.675C198.547 114.94 206.851 107.066 207.327 97.9677C207.884 87.6602 198.031 77.7402 179.517 70.0677V69.9902L179.453 69.9437ZM80.7962 73.2375C78.6508 76.4537 76.6643 79.6467 74.7255 82.8785C72.5227 77.2519 70.6054 71.5229 68.9806 65.7122C74.6461 64.8597 80.7803 64.2397 87.3357 63.8522C85.1109 66.8747 82.9337 70.0057 80.8201 73.2297V73.1522L80.7962 73.2375ZM111.984 82.3437C109.086 82.3437 106.307 83.4664 104.258 85.4649C102.209 87.4633 101.058 90.1738 101.058 93C101.058 95.8262 102.209 98.5366 104.258 100.535C106.307 102.534 109.086 103.656 111.984 103.656C114.882 103.656 117.661 102.534 119.71 100.535C121.759 98.5366 122.91 95.8262 122.91 93C122.91 90.1738 121.759 87.4633 119.71 85.4649C117.661 83.4664 114.882 82.3437 111.984 82.3437Z" fill="#7290BD" fill-opacity="0.75"/>
</g>
<g style="mix-blend-mode:soft-light">
<path d="M179.453 69.9437C162.107 62.7362 138.802 58.0862 113.899 56.8075C109.926 56.575 106.056 56.4975 102.377 56.4975C120.796 34.565 140.534 19.84 153.525 19.375C156.084 19.2742 158.253 19.8012 159.986 20.894C165.595 24.4435 167.177 34.596 164.316 48.7165C163.998 50.654 165.27 52.5372 167.177 52.9015C169.163 53.289 171.07 52.049 171.467 50.1115C175.043 32.4415 172.421 20.305 163.998 14.942C160.979 13.02 157.324 12.1132 153.271 12.2605C136.982 12.8572 114.018 30.0855 92.9615 56.5905C83.7918 56.8617 75.1626 57.598 67.2802 58.8147C62.1471 36.363 64.1813 20.243 72.0001 16.368C73.0966 15.8022 74.2647 15.5155 75.6314 15.407C81.1697 14.9885 88.8216 18.4682 97.1649 25.2495C98.7064 26.4895 101.027 26.3345 102.298 24.7845C102.603 24.4257 102.833 24.0119 102.974 23.5665C103.116 23.1211 103.165 22.653 103.121 22.1888C103.077 21.7246 102.939 21.2734 102.716 20.8611C102.493 20.4488 102.189 20.0834 101.821 19.7857C91.8093 11.7025 82.5761 7.74997 75.0275 8.29247C72.8102 8.46762 70.6461 9.04591 68.6469 9.99747C59.1912 14.7017 55.3771 28.0317 57.7609 47.492C58.3171 51.522 59.0323 55.7225 60.0653 60.047C33.9946 65.131 17.3876 75.3145 16.6724 88.133C16.1957 97.2005 23.5457 105.834 37.9676 113.103C38.3964 113.357 38.8741 113.522 39.3711 113.588C39.8681 113.654 40.3736 113.619 40.8563 113.487C41.339 113.354 41.7885 113.125 42.1768 112.816C42.5652 112.506 42.884 112.122 43.1135 111.687C43.3431 111.252 43.4784 110.776 43.511 110.288C43.5437 109.8 43.473 109.31 43.3033 108.85C43.1336 108.389 42.8687 107.968 42.5249 107.612C42.1811 107.256 41.7658 106.972 41.3049 106.779C29.7832 100.99 23.5854 94.4725 23.9589 88.505C24.3562 80.135 38.0391 71.5325 61.7816 66.96C63.927 74.6635 66.7081 82.708 70.1248 90.9075C62.0359 105.539 56.1717 119.947 53.1443 132.757C48.6946 151.861 51.0784 165.462 59.9779 171.104C62.8384 172.918 66.1757 173.817 69.8864 173.817C77.3159 173.817 86.3107 170.252 96.4815 163.184C96.8944 162.924 97.2489 162.585 97.5238 162.188C97.7987 161.79 97.9882 161.343 98.0809 160.872C98.1736 160.401 98.1676 159.917 98.0633 159.449C97.9589 158.98 97.7584 158.537 97.4738 158.147C97.1891 157.756 96.8263 157.425 96.4071 157.175C95.988 156.925 95.5212 156.76 95.0349 156.69C94.5487 156.621 94.053 156.648 93.5778 156.77C93.1027 156.893 92.6578 157.108 92.2702 157.402C80.0016 165.951 69.6719 168.81 63.9667 165.176C57.9278 161.339 56.6088 150.117 60.3116 134.362C62.8543 123.62 67.5186 111.654 73.8833 99.3317C75.4724 102.726 77.1411 106.121 78.8892 109.507C90.2122 131.176 104.078 150.017 117.904 162.556C128.917 172.554 139.151 177.769 147.582 177.769C150.363 177.769 152.985 177.188 155.337 176.041C164.435 171.507 168.369 158.914 166.446 140.585C164.666 123.434 158.023 102.532 147.741 81.685C147.307 80.8592 146.56 80.2309 145.659 79.9337C144.757 79.6365 143.773 79.6938 142.914 80.0934C142.055 80.493 141.39 81.2034 141.06 82.0736C140.73 82.9439 140.761 83.9054 141.146 84.754C162.52 128.169 164.03 163.726 152.032 169.694C139.398 175.995 108.933 151.443 85.3651 106.299C82.6635 101.223 80.3036 96.224 78.2138 91.3415C80.9154 86.6295 83.776 81.8865 86.9146 77.159C90.0533 72.478 93.319 67.952 96.6404 63.6352H99.7712C104.062 63.6352 108.718 63.7127 113.549 64.0072C165.436 66.6655 200.756 83.8472 200.033 97.5957C199.715 103.524 192.691 109.515 180.764 114.026C179.868 114.378 179.149 115.059 178.763 115.923C178.377 116.787 178.353 117.764 178.698 118.645C178.868 119.082 179.125 119.482 179.455 119.821C179.784 120.161 180.18 120.433 180.618 120.622C181.057 120.811 181.53 120.913 182.009 120.922C182.488 120.931 182.964 120.847 183.41 120.675C198.547 114.94 206.851 107.066 207.327 97.9677C207.884 87.6602 198.031 77.7402 179.517 70.0677V69.9902L179.453 69.9437ZM80.7962 73.2375C78.6508 76.4537 76.6643 79.6467 74.7255 82.8785C72.5227 77.2519 70.6054 71.5229 68.9806 65.7122C74.6461 64.8597 80.7803 64.2397 87.3357 63.8522C85.1109 66.8747 82.9337 70.0057 80.8201 73.2297V73.1522L80.7962 73.2375ZM111.984 82.3437C109.086 82.3437 106.307 83.4664 104.258 85.4649C102.209 87.4633 101.058 90.1738 101.058 93C101.058 95.8262 102.209 98.5366 104.258 100.535C106.307 102.534 109.086 103.656 111.984 103.656C114.882 103.656 117.661 102.534 119.71 100.535C121.759 98.5366 122.91 95.8262 122.91 93C122.91 90.1738 121.759 87.4633 119.71 85.4649C117.661 83.4664 114.882 82.3437 111.984 82.3437Z" fill="#7290BD"/>
</g>
<defs>
<filter id="filter0_f_2_154" x="12.6506" y="4.24329" width="198.699" height="177.526" filterUnits="userSpaceOnUse" color-interpolation-filters="sRGB">
<feFlood flood-opacity="0" result="BackgroundImageFix"/>
<feBlend mode="normal" in="SourceGraphic" in2="BackgroundImageFix" result="shape"/>
<feGaussianBlur stdDeviation="2" result="effect1_foregroundBlur_2_154"/>
</filter>
</defs>
</svg>
