<svg width="35" height="39" viewBox="0 0 35 39" fill="none" xmlns="http://www.w3.org/2000/svg">
<g filter="url(#filter0_f_5_129)">
<path d="M17.5 19.5C19.5306 19.5 21.478 18.6934 22.9138 17.2575C24.3496 15.8217 25.1562 13.8743 25.1562 11.8438C25.1562 9.81319 24.3496 7.86579 22.9138 6.42996C21.478 4.99414 19.5306 4.1875 17.5 4.1875C15.4694 4.1875 13.522 4.99414 12.0862 6.42996C10.6504 7.86579 9.84375 9.81319 9.84375 11.8438C9.84375 13.8743 10.6504 15.8217 12.0862 17.2575C13.522 18.6934 15.4694 19.5 17.5 19.5ZM8.20312 21.6875C7.18784 21.6875 6.21414 22.0908 5.49623 22.8087C4.77832 23.5266 4.375 24.5003 4.375 25.5156V26.0625C4.375 28.6798 6.04078 30.8936 8.40547 32.3986C10.7833 33.9123 14.0022 34.8125 17.5 34.8125C20.9978 34.8125 24.2156 33.9123 26.5945 32.3986C28.9592 30.8936 30.625 28.6798 30.625 26.0625V25.5156C30.625 24.5003 30.2217 23.5266 29.5038 22.8087C28.7859 22.0908 27.8122 21.6875 26.7969 21.6875H8.20312Z" fill="#6E96CF" fill-opacity="0.75"/>
</g>
<path d="M17.5 19.5C19.5306 19.5 21.478 18.6934 22.9138 17.2575C24.3496 15.8217 25.1562 13.8743 25.1562 11.8438C25.1562 9.81319 24.3496 7.86579 22.9138 6.42996C21.478 4.99414 19.5306 4.1875 17.5 4.1875C15.4694 4.1875 13.522 4.99414 12.0862 6.42996C10.6504 7.86579 9.84375 9.81319 9.84375 11.8438C9.84375 13.8743 10.6504 15.8217 12.0862 17.2575C13.522 18.6934 15.4694 19.5 17.5 19.5ZM8.20312 21.6875C7.18784 21.6875 6.21414 22.0908 5.49623 22.8087C4.77832 23.5266 4.375 24.5003 4.375 25.5156V26.0625C4.375 28.6798 6.04078 30.8936 8.40547 32.3986C10.7833 33.9123 14.0022 34.8125 17.5 34.8125C20.9978 34.8125 24.2156 33.9123 26.5945 32.3986C28.9592 30.8936 30.625 28.6798 30.625 26.0625V25.5156C30.625 24.5003 30.2217 23.5266 29.5038 22.8087C28.7859 22.0908 27.8122 21.6875 26.7969 21.6875H8.20312Z" fill="#6E96CF"/>
<defs>
<filter id="filter0_f_5_129" x="-4" y="-2" width="43" height="43" filterUnits="userSpaceOnUse" color-interpolation-filters="sRGB">
<feFlood flood-opacity="0" result="BackgroundImageFix"/>
<feBlend mode="normal" in="SourceGraphic" in2="BackgroundImageFix" result="shape"/>
<feGaussianBlur stdDeviation="2" result="effect1_foregroundBlur_5_129"/>
</filter>
</defs>
</svg>
