<svg width="477" height="144" viewBox="0 0 477 144" fill="none" xmlns="http://www.w3.org/2000/svg">
<g style="mix-blend-mode:soft-light" filter="url(#filter0_f_106_6)">
<path d="M138.596 54.15C125.199 48.57 107.2 44.97 87.9667 43.98C84.8983 43.8 81.9097 43.74 79.0683 43.74C93.2935 26.76 108.537 15.36 118.571 15C120.547 14.922 122.222 15.33 123.56 16.176C127.893 18.924 129.114 26.784 126.905 37.716C126.659 39.216 127.641 40.674 129.114 40.956C130.648 41.256 132.121 40.296 132.428 38.796C135.19 25.116 133.164 15.72 126.659 11.568C124.327 10.08 121.504 9.37804 118.375 9.49204C105.794 9.95404 88.0588 23.292 71.7962 43.812C64.7143 44.022 58.0497 44.592 51.962 45.534C47.9976 28.152 49.5686 15.672 55.6072 12.672C56.4541 12.234 57.3562 12.012 58.4118 11.928C62.6891 11.604 68.5989 14.298 75.0426 19.548C76.2331 20.508 78.0251 20.388 79.0069 19.188C79.2427 18.9103 79.4202 18.5899 79.5293 18.2451C79.6384 17.9003 79.6769 17.5378 79.6428 17.1785C79.6086 16.8191 79.5023 16.4698 79.33 16.1506C79.1578 15.8314 78.9229 15.5485 78.6387 15.318C70.9063 9.06004 63.7753 6.00004 57.9454 6.42004C56.2329 6.55564 54.5615 7.00334 53.0175 7.74004C45.7147 11.382 42.769 21.702 44.61 36.768C45.0396 39.888 45.5919 43.14 46.3897 46.488C26.2548 50.424 13.4288 58.308 12.8765 68.232C12.5083 75.252 18.1849 81.936 29.3232 87.564C29.6544 87.7605 30.0233 87.8882 30.4072 87.9392C30.791 87.9903 31.1814 87.9635 31.5542 87.8607C31.927 87.7578 32.2742 87.5811 32.5741 87.3414C32.874 87.1017 33.1203 86.8042 33.2975 86.4675C33.4748 86.1308 33.5793 85.762 33.6045 85.3841C33.6297 85.0061 33.5751 84.6272 33.4441 84.2708C33.3131 83.9144 33.1084 83.5882 32.8429 83.3125C32.5774 83.0367 32.2566 82.8174 31.9007 82.668C23.0023 78.186 18.2156 73.14 18.504 68.52C18.8108 62.04 29.3784 55.38 47.7153 51.84C49.3722 57.804 51.5201 64.032 54.1589 70.38C47.9117 81.708 43.3827 92.862 41.0445 102.78C37.6079 117.57 39.449 128.1 46.3222 132.468C48.5315 133.872 51.1089 134.568 53.9748 134.568C59.7128 134.568 66.6597 131.808 74.5148 126.336C74.8336 126.135 75.1074 125.872 75.3197 125.565C75.532 125.257 75.6784 124.911 75.75 124.546C75.8216 124.182 75.817 123.807 75.7364 123.444C75.6558 123.082 75.5009 122.739 75.2811 122.436C75.0613 122.134 74.781 121.878 74.4573 121.684C74.1336 121.49 73.7731 121.363 73.3975 121.309C73.022 121.255 72.6392 121.276 72.2722 121.371C71.9052 121.465 71.5617 121.632 71.2623 121.86C61.787 128.478 53.8091 130.692 49.4029 127.878C44.7389 124.908 43.7202 116.22 46.58 104.022C48.5437 95.706 52.1461 86.442 57.0617 76.902C58.289 79.53 59.5778 82.158 60.9279 84.78C69.6728 101.556 80.3816 116.142 91.0597 125.85C99.5653 133.59 107.47 137.628 113.981 137.628C116.129 137.628 118.154 137.178 119.97 136.29C126.997 132.78 130.035 123.03 128.55 108.84C127.175 95.562 122.045 79.38 114.103 63.24C113.768 62.6007 113.191 62.1143 112.495 61.8842C111.799 61.6541 111.039 61.6985 110.376 62.0078C109.712 62.3172 109.199 62.8672 108.944 63.5409C108.689 64.2147 108.712 64.9591 109.01 65.616C125.518 99.228 126.684 126.756 117.417 131.376C107.66 136.254 84.1312 117.246 65.9294 82.296C63.8428 78.366 62.0202 74.496 60.4062 70.716C62.4928 67.068 64.702 63.396 67.1261 59.736C69.5501 56.112 72.0723 52.608 74.6375 49.266H77.0554C80.3693 49.266 83.9655 49.326 87.6967 49.554C127.77 51.612 155.048 64.914 154.49 75.558C154.244 80.148 148.819 84.786 139.608 88.278C138.916 88.5508 138.361 89.0783 138.062 89.7471C137.764 90.4159 137.746 91.1724 138.013 91.854C138.144 92.1926 138.342 92.5022 138.597 92.765C138.851 93.0278 139.157 93.2385 139.496 93.3848C139.834 93.5311 140.199 93.6101 140.569 93.6171C140.94 93.6242 141.307 93.5593 141.652 93.426C153.342 88.986 159.755 82.89 160.124 75.846C160.553 67.866 152.943 60.186 138.645 54.246V54.186L138.596 54.15ZM62.4007 56.7C60.7438 59.19 59.2095 61.662 57.7122 64.164C56.0108 59.808 54.5301 55.3726 53.2752 50.874C57.6508 50.214 62.3884 49.734 67.4513 49.434C65.733 51.774 64.0515 54.198 62.4191 56.694V56.634L62.4007 56.7ZM86.4877 63.75C84.2498 63.75 82.1035 64.6192 80.5211 66.1664C78.9386 67.7136 78.0496 69.812 78.0496 72C78.0496 74.1881 78.9386 76.2865 80.5211 77.8337C82.1035 79.3808 84.2498 80.25 86.4877 80.25C88.7257 80.25 90.8719 79.3808 92.4544 77.8337C94.0369 76.2865 94.9259 74.1881 94.9259 72C94.9259 69.812 94.0369 67.7136 92.4544 66.1664C90.8719 64.6192 88.7257 63.75 86.4877 63.75Z" fill="#7290BD" fill-opacity="0.75"/>
</g>
<g style="mix-blend-mode:soft-light">
<path d="M138.596 54.15C125.199 48.57 107.2 44.97 87.9667 43.98C84.8983 43.8 81.9097 43.74 79.0683 43.74C93.2935 26.76 108.537 15.36 118.571 15C120.547 14.922 122.222 15.33 123.56 16.176C127.893 18.924 129.114 26.784 126.905 37.716C126.659 39.216 127.641 40.674 129.114 40.956C130.648 41.256 132.121 40.296 132.428 38.796C135.19 25.116 133.164 15.72 126.659 11.568C124.327 10.08 121.504 9.37798 118.375 9.49198C105.794 9.95398 88.0588 23.292 71.7962 43.812C64.7143 44.022 58.0497 44.592 51.962 45.534C47.9976 28.152 49.5686 15.672 55.6072 12.672C56.4541 12.234 57.3562 12.012 58.4118 11.928C62.6891 11.604 68.5989 14.298 75.0426 19.548C76.2331 20.508 78.0251 20.388 79.0069 19.188C79.2427 18.9102 79.4202 18.5898 79.5293 18.245C79.6384 17.9002 79.6769 17.5378 79.6428 17.1784C79.6086 16.819 79.5023 16.4698 79.33 16.1505C79.1578 15.8313 78.9229 15.5484 78.6387 15.318C70.9063 9.05998 63.7753 5.99998 57.9454 6.41998C56.2329 6.55558 54.5615 7.00328 53.0175 7.73998C45.7147 11.382 42.769 21.702 44.61 36.768C45.0396 39.888 45.5919 43.14 46.3897 46.488C26.2548 50.424 13.4288 58.308 12.8765 68.232C12.5083 75.252 18.1849 81.936 29.3232 87.564C29.6544 87.7604 30.0233 87.8881 30.4072 87.9392C30.791 87.9902 31.1814 87.9635 31.5542 87.8606C31.927 87.7578 32.2742 87.581 32.5741 87.3413C32.874 87.1016 33.1203 86.8042 33.2975 86.4675C33.4748 86.1307 33.5793 85.7619 33.6045 85.384C33.6297 85.0061 33.5751 84.6271 33.4441 84.2708C33.3131 83.9144 33.1084 83.5881 32.8429 83.3124C32.5774 83.0367 32.2566 82.8173 31.9007 82.668C23.0023 78.186 18.2156 73.14 18.504 68.52C18.8108 62.04 29.3784 55.38 47.7153 51.84C49.3722 57.804 51.5201 64.032 54.1589 70.38C47.9117 81.708 43.3827 92.862 41.0445 102.78C37.6079 117.57 39.449 128.1 46.3222 132.468C48.5315 133.872 51.1089 134.568 53.9748 134.568C59.7128 134.568 66.6597 131.808 74.5148 126.336C74.8336 126.135 75.1074 125.872 75.3197 125.565C75.532 125.257 75.6784 124.91 75.75 124.546C75.8216 124.182 75.817 123.807 75.7364 123.444C75.6558 123.082 75.5009 122.739 75.2811 122.436C75.0613 122.134 74.781 121.878 74.4573 121.684C74.1336 121.49 73.7731 121.363 73.3975 121.309C73.022 121.255 72.6392 121.276 72.2722 121.371C71.9052 121.465 71.5617 121.632 71.2623 121.86C61.787 128.478 53.8091 130.692 49.4029 127.878C44.7389 124.908 43.7202 116.22 46.58 104.022C48.5437 95.706 52.1461 86.442 57.0617 76.902C58.289 79.53 59.5778 82.158 60.9279 84.78C69.6728 101.556 80.3816 116.142 91.0597 125.85C99.5653 133.59 107.47 137.628 113.981 137.628C116.129 137.628 118.154 137.178 119.97 136.29C126.997 132.78 130.035 123.03 128.55 108.84C127.175 95.562 122.045 79.38 114.103 63.24C113.768 62.6006 113.191 62.1143 112.495 61.8842C111.799 61.6541 111.039 61.6984 110.376 62.0078C109.712 62.3171 109.199 62.8671 108.944 63.5409C108.689 64.2146 108.712 64.959 109.01 65.616C125.518 99.228 126.684 126.756 117.417 131.376C107.66 136.254 84.1312 117.246 65.9294 82.296C63.8428 78.366 62.0202 74.496 60.4062 70.716C62.4928 67.068 64.702 63.396 67.1261 59.736C69.5501 56.112 72.0723 52.608 74.6375 49.266H77.0554C80.3693 49.266 83.9655 49.326 87.6967 49.554C127.77 51.612 155.048 64.914 154.49 75.558C154.244 80.148 148.819 84.786 139.608 88.278C138.916 88.5507 138.361 89.0782 138.062 89.747C137.764 90.4158 137.746 91.1724 138.013 91.854C138.144 92.1925 138.342 92.5022 138.597 92.765C138.851 93.0278 139.157 93.2384 139.496 93.3847C139.834 93.531 140.199 93.61 140.569 93.6171C140.94 93.6242 141.307 93.5592 141.652 93.426C153.342 88.986 159.755 82.89 160.124 75.846C160.553 67.866 152.943 60.186 138.645 54.246V54.186L138.596 54.15ZM62.4007 56.7C60.7438 59.19 59.2095 61.662 57.7122 64.164C56.0108 59.8079 54.5301 55.3725 53.2752 50.874C57.6508 50.214 62.3884 49.734 67.4513 49.434C65.733 51.774 64.0515 54.198 62.4191 56.694V56.634L62.4007 56.7ZM86.4877 63.75C84.2498 63.75 82.1035 64.6192 80.5211 66.1663C78.9386 67.7135 78.0496 69.8119 78.0496 72C78.0496 74.188 78.9386 76.2864 80.5211 77.8336C82.1035 79.3808 84.2498 80.25 86.4877 80.25C88.7257 80.25 90.8719 79.3808 92.4544 77.8336C94.0369 76.2864 94.9259 74.188 94.9259 72C94.9259 69.8119 94.0369 67.7135 92.4544 66.1663C90.8719 64.6192 88.7257 63.75 86.4877 63.75Z" fill="#7290BD"/>
</g>
<path d="M36.832 88L25.552 58.384H26.896L15.664 88H12.064L25.072 56.416H28.096L40.624 88H36.832ZM17.776 77.152L18.784 74.32H32.992L34.528 77.152H17.776ZM52.3574 88V56.416H56.0054V88H52.3574ZM40.4054 59.248V56.416H67.9574V59.248H40.4054ZM86.4231 88.432C83.3511 88.432 80.5991 87.744 78.1671 86.368C75.7671 84.992 73.8791 83.088 72.5031 80.656C71.1271 78.224 70.4391 75.456 70.4391 72.352C70.4391 69.92 70.8551 67.696 71.6871 65.68C72.5511 63.664 73.7351 61.936 75.2391 60.496C76.7751 59.056 78.5351 57.952 80.5191 57.184C82.5351 56.384 84.6951 55.984 86.9991 55.984C90.0711 55.984 92.8071 56.672 95.2071 58.048C97.6071 59.424 99.4951 61.328 100.871 63.76C102.247 66.16 102.935 68.928 102.935 72.064C102.935 74.496 102.503 76.72 101.639 78.736C100.807 80.752 99.6391 82.48 98.1351 83.92C96.6311 85.36 94.8711 86.48 92.8551 87.28C90.8711 88.048 88.7271 88.432 86.4231 88.432ZM87.0471 85.84C89.4471 85.84 91.5591 85.28 93.3831 84.16C95.2071 83.04 96.6151 81.488 97.6071 79.504C98.6311 77.488 99.1431 75.184 99.1431 72.592C99.1431 69.776 98.5831 67.328 97.4631 65.248C96.3431 63.136 94.8071 61.504 92.8551 60.352C90.9351 59.168 88.7591 58.576 86.3271 58.576C83.9911 58.576 81.9111 59.136 80.0871 60.256C78.2951 61.376 76.8871 62.928 75.8631 64.912C74.8391 66.896 74.3271 69.2 74.3271 71.824C74.3271 74.608 74.8871 77.056 76.0071 79.168C77.1271 81.28 78.6471 82.928 80.5671 84.112C82.5191 85.264 84.6791 85.84 87.0471 85.84ZM141.528 88L140.184 58.048L141.816 57.472L128.616 85.312H126.456L113.736 58.864L113.784 56.416H116.28L128.568 81.76H127.464L139.464 56.416H143.208L145.08 88H141.528ZM110.184 88L112.248 56.416H114.84L113.448 88H110.184ZM166.254 88C167.502 85.44 168.542 82.56 169.374 79.36C170.238 76.128 170.942 72.592 171.486 68.752C172.03 64.912 172.462 60.8 172.782 56.416H175.902C175.614 60.8 175.198 64.912 174.654 68.752C174.11 72.56 173.422 76.08 172.59 79.312C171.79 82.544 170.782 85.44 169.566 88H166.254ZM163.95 96.4L163.134 85.216H166.638V96.4H163.95ZM164.286 88L164.19 85.216H194.862L193.806 88H164.286ZM192.174 96.4L191.406 85.216H194.91L194.862 96.4H192.174ZM187.134 88V56.416H190.638V88H187.134ZM174.414 59.248V56.416H188.958V59.248H174.414ZM215.095 88.432C212.023 88.432 209.271 87.744 206.839 86.368C204.439 84.992 202.551 83.088 201.175 80.656C199.799 78.224 199.111 75.456 199.111 72.352C199.111 69.92 199.527 67.696 200.359 65.68C201.223 63.664 202.407 61.936 203.911 60.496C205.447 59.056 207.207 57.952 209.191 57.184C211.207 56.384 213.367 55.984 215.671 55.984C218.743 55.984 221.479 56.672 223.879 58.048C226.279 59.424 228.167 61.328 229.543 63.76C230.919 66.16 231.607 68.928 231.607 72.064C231.607 74.496 231.175 76.72 230.311 78.736C229.479 80.752 228.311 82.48 226.807 83.92C225.303 85.36 223.543 86.48 221.527 87.28C219.543 88.048 217.399 88.432 215.095 88.432ZM215.719 85.84C218.119 85.84 220.231 85.28 222.055 84.16C223.879 83.04 225.287 81.488 226.279 79.504C227.303 77.488 227.815 75.184 227.815 72.592C227.815 69.776 227.255 67.328 226.135 65.248C225.015 63.136 223.479 61.504 221.527 60.352C219.607 59.168 217.431 58.576 214.999 58.576C212.663 58.576 210.583 59.136 208.759 60.256C206.967 61.376 205.559 62.928 204.535 64.912C203.511 66.896 202.999 69.2 202.999 71.824C202.999 74.608 203.559 77.056 204.679 79.168C205.799 81.28 207.319 82.928 209.239 84.112C211.191 85.264 213.351 85.84 215.719 85.84ZM258.632 88L242.6 71.776L257.576 56.416H261.896L245.432 72.4L245.72 70.672L263.384 88H258.632ZM239.576 88V56.416H243.032V88H239.576ZM274.675 88.432C273.971 88.432 273.251 88.336 272.515 88.144C271.811 87.984 271.139 87.76 270.499 87.472L271.267 85.552C271.907 85.68 272.467 85.776 272.947 85.84C273.427 85.904 273.875 85.936 274.291 85.936C275.155 85.936 275.923 85.712 276.595 85.264C277.299 84.816 277.955 84.128 278.563 83.2C279.203 82.24 279.875 80.992 280.579 79.456L291.043 56.416H294.835L283.123 80.656C282.323 82.32 281.539 83.744 280.771 84.928C280.003 86.08 279.139 86.96 278.179 87.568C277.219 88.144 276.051 88.432 274.675 88.432ZM280.195 81.568L266.563 56.416H270.499L282.403 79.408L280.195 81.568ZM332.403 88L331.059 58.048L332.691 57.472L319.491 85.312H317.331L304.611 58.864L304.659 56.416H307.155L319.443 81.76H318.339L330.339 56.416H334.083L335.955 88H332.403ZM301.059 88L303.123 56.416H305.715L304.323 88H301.059ZM365.621 88H345.701V56.416H364.133V59.248H349.157V85.168H365.621V88ZM346.901 73.36V70.624H362.309V73.36H346.901ZM396.25 88V56.416H399.802V88H396.25ZM373.498 88V56.416H377.05V88H373.498ZM374.698 73.408V70.528H398.65V73.408H374.698ZM418.264 88V56.416H421.912V88H418.264ZM406.312 59.248V56.416H433.864V59.248H406.312ZM440.388 88V56.416H443.796V85.312H449.94C452.244 85.312 453.972 84.672 455.124 83.392C456.308 82.08 456.9 80.352 456.9 78.208C456.9 76.096 456.324 74.432 455.172 73.216C454.02 71.968 452.148 71.344 449.556 71.344H442.596V68.656H450.132C453.428 68.656 455.956 69.44 457.716 71.008C459.476 72.576 460.356 74.816 460.356 77.728C460.356 79.744 459.924 81.536 459.06 83.104C458.196 84.64 456.948 85.84 455.316 86.704C453.684 87.568 451.716 88 449.412 88H440.388ZM466.884 88V56.416H470.484L470.58 88H466.884Z" fill="#E7DBF4"/>
<defs>
<filter id="filter0_f_106_6" x="8.85968" y="2.38196" width="155.281" height="139.246" filterUnits="userSpaceOnUse" color-interpolation-filters="sRGB">
<feFlood flood-opacity="0" result="BackgroundImageFix"/>
<feBlend mode="normal" in="SourceGraphic" in2="BackgroundImageFix" result="shape"/>
<feGaussianBlur stdDeviation="2" result="effect1_foregroundBlur_106_6"/>
</filter>
</defs>
</svg>
