<svg width="48" height="48" viewBox="0 0 48 48" fill="none" xmlns="http://www.w3.org/2000/svg">
<path d="M39.5 15.5H30.5C29.9696 15.5 29.4609 15.2893 29.0858 14.9142C28.7107 14.5391 28.5 14.0304 28.5 13.5V4.5M39.5 15.5V41.5C39.5 42.0304 39.2893 42.5391 38.9142 42.9142C38.5391 43.2893 38.0304 43.5 37.5 43.5H10.5C9.96957 43.5 9.46086 43.2893 9.08579 42.9142C8.71071 42.5391 8.5 42.0304 8.5 41.5V6.5C8.5 5.96957 8.71071 5.46086 9.08579 5.08579C9.46086 4.71071 9.96957 4.5 10.5 4.5H28.5M39.5 15.5L28.5 4.5" stroke="#E7DBF4" stroke-linecap="round" stroke-linejoin="round"/>
<path d="M24 39.7471C26.6631 39.7471 28.822 34.5983 28.822 28.2471C28.822 21.8958 26.6631 16.7471 24 16.7471C21.3369 16.7471 19.178 21.8958 19.178 28.2471C19.178 34.5983 21.3369 39.7471 24 39.7471Z" stroke="#BD7272" stroke-linecap="round" stroke-linejoin="round"/>
<path d="M26.4109 32.423C31.9113 29.2474 35.2908 24.8033 33.9592 22.497C32.6277 20.1907 27.0893 20.8954 21.5889 24.071C16.0886 27.2467 12.7091 31.6907 14.0406 33.997C15.3722 36.3033 20.9106 35.5986 26.4109 32.423Z" stroke="#BD7272" stroke-linecap="round" stroke-linejoin="round"/>
<path d="M33.9592 33.9971C35.2908 31.6908 31.9113 27.2468 26.4109 24.0711C20.9106 20.8955 15.3722 20.1908 14.0406 22.4971C12.7091 24.8034 16.0886 29.2475 21.5889 32.4231C27.0893 35.5987 32.6277 36.3034 33.9592 33.9971Z" stroke="#BD7272" stroke-linecap="round" stroke-linejoin="round"/>
</svg>
