<svg width="48" height="48" viewBox="0 0 48 48" fill="none" xmlns="http://www.w3.org/2000/svg">
<path d="M39.5 15.5H30.5C29.9696 15.5 29.4609 15.2893 29.0858 14.9142C28.7107 14.5391 28.5 14.0304 28.5 13.5V4.5M39.5 15.5V41.5C39.5 42.0304 39.2893 42.5391 38.9142 42.9142C38.5391 43.2893 38.0304 43.5 37.5 43.5H10.5C9.96957 43.5 9.46086 43.2893 9.08579 42.9142C8.71071 42.5391 8.5 42.0304 8.5 41.5V6.5C8.5 5.96957 8.71071 5.46086 9.08579 5.08579C9.46086 4.71071 9.96957 4.5 10.5 4.5H28.5M39.5 15.5L28.5 4.5" stroke="#E7DBF4" stroke-linecap="round" stroke-linejoin="round"/>
<path d="M24 38.2001C18.36 38.2001 13.8 33.64 13.8 28C13.8 22.36 18.36 17.8 24 17.8C29.64 17.8 34.2001 22.36 34.2001 28C34.2001 33.64 29.64 38.2001 24 38.2001ZM24 19C19.02 19 15 23.02 15 28C15 32.98 19.02 37 24 37C28.98 37 33 32.98 33 28C33 23.02 28.98 19 24 19Z" fill="#7290BD"/>
<path d="M18.6001 27.4H29.4001V28.6H18.6001V27.4Z" fill="#7290BD"/>
<path d="M23.3999 22.6H24.5999V33.4H23.3999V22.6Z" fill="#7290BD"/>
</svg>
