<svg width="29" height="29" viewBox="0 0 29 29" fill="none" xmlns="http://www.w3.org/2000/svg">
<g clip-path="url(#clip0_5_126)">
<path d="M20.524 18.125H19.2606L18.8128 17.6932C20.4343 15.8125 21.3254 13.4115 21.3236 10.9283C21.3236 8.87232 20.714 6.86252 19.5717 5.15303C18.4295 3.44355 16.806 2.11116 14.9065 1.32437C13.007 0.537585 10.9169 0.331725 8.90042 0.732827C6.88394 1.13393 5.03169 2.12398 3.5779 3.57778C2.1241 5.03157 1.13405 6.88382 0.732949 8.9003C0.331847 10.9168 0.537707 13.0069 1.3245 14.9064C2.11129 16.8059 3.44367 18.4294 5.15315 19.5716C6.86264 20.7139 8.87245 21.3235 10.9284 21.3235C13.5032 21.3235 15.8702 20.38 17.6933 18.8127L18.1251 19.2605V20.5239L26.1214 28.5042L28.5043 26.1213L20.524 18.125ZM10.9284 18.125C6.94626 18.125 3.73174 14.9105 3.73174 10.9283C3.73174 6.94614 6.94626 3.73162 10.9284 3.73162C14.9106 3.73162 18.1251 6.94614 18.1251 10.9283C18.1251 14.9105 14.9106 18.125 10.9284 18.125Z" fill="#7290BD"/>
</g>
<defs>
<clipPath id="clip0_5_126">
<rect width="29" height="29" fill="white"/>
</clipPath>
</defs>
</svg>
