<svg width="48" height="48" viewBox="0 0 48 48" fill="none" xmlns="http://www.w3.org/2000/svg">
<path d="M39.5 15.5H30.5C29.9696 15.5 29.4609 15.2893 29.0858 14.9142C28.7107 14.5391 28.5 14.0304 28.5 13.5V4.5M39.5 15.5V41.5C39.5 42.0304 39.2893 42.5391 38.9142 42.9142C38.5391 43.2893 38.0304 43.5 37.5 43.5H10.5C9.96957 43.5 9.46086 43.2893 9.08579 42.9142C8.71071 42.5391 8.5 42.0304 8.5 41.5V6.5C8.5 5.96957 8.71071 5.46086 9.08579 5.08579C9.46086 4.71071 9.96957 4.5 10.5 4.5H28.5M39.5 15.5L28.5 4.5" stroke="#E7DBF4" stroke-linecap="round" stroke-linejoin="round"/>
<path d="M24 39.747C26.6631 39.747 28.822 34.5982 28.822 28.2469C28.822 21.8957 26.6631 16.7469 24 16.7469C21.3369 16.7469 19.178 21.8957 19.178 28.2469C19.178 34.5982 21.3369 39.747 24 39.747Z" stroke="#7290BD" stroke-linecap="round" stroke-linejoin="round"/>
<path d="M26.411 32.4229C31.9114 29.2472 35.2908 24.8032 33.9593 22.4969C32.6277 20.1906 27.0894 20.8953 21.589 24.0709C16.0886 27.2466 12.7091 31.6906 14.0407 33.9969C15.3723 36.3032 20.9106 35.5985 26.411 32.4229Z" stroke="#7290BD" stroke-linecap="round" stroke-linejoin="round"/>
<path d="M33.9593 33.997C35.2908 31.6907 31.9114 27.2467 26.411 24.071C20.9106 20.8954 15.3723 20.1907 14.0407 22.497C12.7091 24.8033 16.0886 29.2473 21.589 32.423C27.0894 35.5986 32.6277 36.3033 33.9593 33.997Z" stroke="#7290BD" stroke-linecap="round" stroke-linejoin="round"/>
</svg>
