<svg width="31" height="31" viewBox="0 0 31 31" fill="none" xmlns="http://www.w3.org/2000/svg">
<g clip-path="url(#clip0_106_71)">
<path d="M0.854187 29.8459C6.54812 26.2282 9.39594 22.6105 9.39594 18.9928C9.39594 13.5663 7.68759 13.5663 5.97924 13.5663C4.27089 13.5663 2.50787 15.5289 2.56254 18.9928C2.62062 22.6973 5.39498 24.1969 6.83341 26.2282C9.39594 29.8459 11.1043 30.7503 12.8126 28.037C13.9521 26.2282 14.8063 24.7214 15.3752 23.5149C17.0835 27.735 19.3607 29.8459 22.2086 29.8459C22.2086 29.8459 24.8116 29.8459 26.4794 29.8459M26.4794 29.8459C25.1451 28.4331 23.0627 26.2282 23.0627 26.2282M26.4794 29.8459C27.8137 28.4331 29.8961 26.2282 29.8961 26.2282M29.8961 26.2282V4.5221C29.8961 2.49439 28.3945 0.904419 26.4794 0.904419C24.5644 0.904419 23.0627 2.49439 23.0627 4.5221V26.2282M29.8961 26.2282V8.13978L23.0627 8.13978V26.2282" stroke="#E7DBF4" stroke-linecap="round" stroke-linejoin="round"/>
</g>
<defs>
<clipPath id="clip0_106_71">
<rect width="30.7503" height="30.7503" fill="white"/>
</clipPath>
</defs>
</svg>
